%
M48
M72
T01C0.02362
T02C0.03200
T03C0.03937
T04C0.04000
T05C0.04600
%
T01
X159400Y26500
X178000Y29300
X148000Y46800
X133000Y61800
T02
X161000Y69300
X185500Y69300
X173000Y49800
T03
X128000Y27410
X128000Y41190
T04
X105000Y16800
X115000Y16800
X125000Y16800
X135000Y16800
X145000Y16800
X155000Y16800
X165000Y16800
X175000Y16800
X185000Y16800
X195000Y16800
X205000Y16800
X215000Y16800
X215000Y86800
X205000Y86800
X195000Y86800
X185000Y86800
X175000Y86800
X165000Y86800
X155000Y86800
X145000Y86800
X135000Y86800
X125000Y86800
X115000Y86800
X105000Y86800
T05
X208000Y71485
X208000Y51800
X208000Y32115
M30
