G75*
%MOIN*%
%OFA0B0*%
%FSLAX25Y25*%
%IPPOS*%
%LPD*%
%AMOC8*
5,1,8,0,0,1.08239X$1,22.5*
%
%ADD10C,0.00000*%
%ADD11R,0.04724X0.03937*%
%ADD12R,0.04500X0.04000*%
%ADD13R,0.08000X0.08000*%
%ADD14C,0.08000*%
%ADD15C,0.08000*%
%ADD16R,0.07283X0.07283*%
%ADD17C,0.07283*%
%ADD18C,0.07400*%
%ADD19R,0.04724X0.02717*%
%ADD20C,0.01600*%
%ADD21C,0.03562*%
%ADD22C,0.02400*%
D10*
X0088000Y0011800D02*
X0088000Y0091800D01*
X0238000Y0091800D01*
X0238000Y0011800D01*
X0088000Y0011800D01*
D11*
X0145677Y0024792D03*
X0154339Y0024792D03*
X0154339Y0029792D03*
X0145677Y0029792D03*
D12*
X0179000Y0034280D03*
X0187000Y0030780D03*
X0187000Y0037780D03*
D13*
X0208000Y0032115D03*
D14*
X0208000Y0051800D03*
X0208000Y0071485D03*
D15*
X0185500Y0073300D02*
X0185500Y0065300D01*
X0161000Y0065300D02*
X0161000Y0073300D01*
X0169000Y0049800D02*
X0177000Y0049800D01*
D16*
X0128000Y0041190D03*
D17*
X0128000Y0027410D03*
D18*
X0125000Y0016800D03*
X0115000Y0016800D03*
X0105000Y0016800D03*
X0135000Y0016800D03*
X0145000Y0016800D03*
X0155000Y0016800D03*
X0165000Y0016800D03*
X0175000Y0016800D03*
X0185000Y0016800D03*
X0195000Y0016800D03*
X0205000Y0016800D03*
X0215000Y0016800D03*
X0215000Y0086800D03*
X0205000Y0086800D03*
X0195000Y0086800D03*
X0185000Y0086800D03*
X0175000Y0086800D03*
X0165000Y0086800D03*
X0155000Y0086800D03*
X0145000Y0086800D03*
X0135000Y0086800D03*
X0125000Y0086800D03*
X0115000Y0086800D03*
X0105000Y0086800D03*
D19*
X0160401Y0038040D03*
X0160401Y0034300D03*
X0160401Y0030560D03*
X0170638Y0030560D03*
X0170638Y0038040D03*
D20*
X0166476Y0038040D01*
X0166476Y0036445D01*
X0166599Y0035987D01*
X0166836Y0035577D01*
X0167171Y0035242D01*
X0167581Y0035005D01*
X0168039Y0034882D01*
X0170638Y0034882D01*
X0170638Y0038040D01*
X0170638Y0038040D01*
X0170638Y0038040D01*
X0166476Y0038040D01*
X0166476Y0039635D01*
X0166599Y0040093D01*
X0166836Y0040504D01*
X0167171Y0040839D01*
X0167581Y0041076D01*
X0168039Y0041198D01*
X0170638Y0041198D01*
X0170638Y0038040D01*
X0170638Y0034882D01*
X0173237Y0034882D01*
X0173695Y0035005D01*
X0174106Y0035242D01*
X0174441Y0035577D01*
X0174450Y0035593D01*
X0174450Y0033721D01*
X0173953Y0034218D01*
X0167323Y0034218D01*
X0165976Y0032871D01*
X0165976Y0028249D01*
X0167323Y0026902D01*
X0170243Y0026902D01*
X0173681Y0023463D01*
X0174344Y0022800D01*
X0173807Y0022800D01*
X0171601Y0021887D01*
X0170000Y0020285D01*
X0168399Y0021887D01*
X0166193Y0022800D01*
X0163807Y0022800D01*
X0161601Y0021887D01*
X0160000Y0020285D01*
X0158708Y0021578D01*
X0159001Y0021871D01*
X0159001Y0022419D01*
X0160212Y0022419D01*
X0161712Y0023040D01*
X0162860Y0024188D01*
X0163481Y0025688D01*
X0163481Y0026902D01*
X0163716Y0026902D01*
X0165063Y0028249D01*
X0165063Y0040351D01*
X0163716Y0041698D01*
X0157086Y0041698D01*
X0155739Y0040351D01*
X0155739Y0040113D01*
X0151412Y0044440D01*
X0151460Y0044488D01*
X0152081Y0045988D01*
X0152081Y0047612D01*
X0151460Y0049112D01*
X0150312Y0050260D01*
X0148812Y0050881D01*
X0147188Y0050881D01*
X0145688Y0050260D01*
X0144540Y0049112D01*
X0143919Y0047612D01*
X0143919Y0045988D01*
X0144540Y0044488D01*
X0144900Y0044128D01*
X0144900Y0042852D01*
X0145372Y0041712D01*
X0153024Y0034061D01*
X0151024Y0034061D01*
X0149676Y0032713D01*
X0149676Y0032525D01*
X0149480Y0032866D01*
X0149145Y0033201D01*
X0148734Y0033438D01*
X0148276Y0033561D01*
X0145861Y0033561D01*
X0145861Y0029976D01*
X0145493Y0029976D01*
X0145493Y0029608D01*
X0141515Y0029608D01*
X0141515Y0027587D01*
X0141594Y0027292D01*
X0141515Y0026998D01*
X0141515Y0024976D01*
X0145493Y0024976D01*
X0145493Y0024608D01*
X0141515Y0024608D01*
X0141515Y0022587D01*
X0141638Y0022129D01*
X0141744Y0021945D01*
X0141601Y0021887D01*
X0140000Y0020285D01*
X0138399Y0021887D01*
X0136193Y0022800D01*
X0133807Y0022800D01*
X0131601Y0021887D01*
X0130000Y0020285D01*
X0128817Y0021469D01*
X0129182Y0021469D01*
X0131366Y0022373D01*
X0133037Y0024045D01*
X0133942Y0026228D01*
X0133942Y0028592D01*
X0133037Y0030776D01*
X0131366Y0032447D01*
X0129182Y0033352D01*
X0126818Y0033352D01*
X0124634Y0032447D01*
X0122963Y0030776D01*
X0122058Y0028592D01*
X0122058Y0026228D01*
X0122963Y0024045D01*
X0124207Y0022800D01*
X0123807Y0022800D01*
X0121601Y0021887D01*
X0120000Y0020285D01*
X0118399Y0021887D01*
X0116193Y0022800D01*
X0113807Y0022800D01*
X0113000Y0022466D01*
X0113000Y0077416D01*
X0128919Y0061497D01*
X0128919Y0060988D01*
X0129540Y0059488D01*
X0130688Y0058340D01*
X0132188Y0057719D01*
X0133812Y0057719D01*
X0135312Y0058340D01*
X0136460Y0059488D01*
X0137081Y0060988D01*
X0137081Y0062612D01*
X0136460Y0064112D01*
X0135312Y0065260D01*
X0133812Y0065881D01*
X0133303Y0065881D01*
X0117742Y0081442D01*
X0118399Y0081713D01*
X0120000Y0083315D01*
X0121601Y0081713D01*
X0123807Y0080800D01*
X0126193Y0080800D01*
X0128399Y0081713D01*
X0130000Y0083315D01*
X0131601Y0081713D01*
X0133807Y0080800D01*
X0136193Y0080800D01*
X0138399Y0081713D01*
X0140000Y0083315D01*
X0141601Y0081713D01*
X0143807Y0080800D01*
X0146193Y0080800D01*
X0148399Y0081713D01*
X0150000Y0083315D01*
X0151601Y0081713D01*
X0153807Y0080800D01*
X0156193Y0080800D01*
X0158399Y0081713D01*
X0160000Y0083315D01*
X0161601Y0081713D01*
X0163807Y0080800D01*
X0166193Y0080800D01*
X0168399Y0081713D01*
X0170000Y0083315D01*
X0171601Y0081713D01*
X0173807Y0080800D01*
X0176193Y0080800D01*
X0178399Y0081713D01*
X0180000Y0083315D01*
X0181601Y0081713D01*
X0183807Y0080800D01*
X0186193Y0080800D01*
X0188399Y0081713D01*
X0190000Y0083315D01*
X0191601Y0081713D01*
X0193807Y0080800D01*
X0196193Y0080800D01*
X0198399Y0081713D01*
X0200000Y0083315D01*
X0201601Y0081713D01*
X0203807Y0080800D01*
X0206193Y0080800D01*
X0208399Y0081713D01*
X0210000Y0083315D01*
X0211601Y0081713D01*
X0213807Y0080800D01*
X0216193Y0080800D01*
X0218399Y0081713D01*
X0220087Y0083401D01*
X0221000Y0085607D01*
X0221000Y0087993D01*
X0220169Y0090000D01*
X0236200Y0090000D01*
X0236200Y0013600D01*
X0219473Y0013600D01*
X0219704Y0013917D01*
X0220097Y0014689D01*
X0220365Y0015512D01*
X0220500Y0016367D01*
X0220500Y0016600D01*
X0215200Y0016600D01*
X0215200Y0017000D01*
X0214800Y0017000D01*
X0214800Y0022300D01*
X0214567Y0022300D01*
X0213712Y0022165D01*
X0212889Y0021897D01*
X0212117Y0021504D01*
X0211417Y0020995D01*
X0210805Y0020383D01*
X0210299Y0019686D01*
X0210087Y0020199D01*
X0208399Y0021887D01*
X0206193Y0022800D01*
X0203807Y0022800D01*
X0201601Y0021887D01*
X0200000Y0020285D01*
X0198399Y0021887D01*
X0196193Y0022800D01*
X0193807Y0022800D01*
X0191601Y0021887D01*
X0190000Y0020285D01*
X0188399Y0021887D01*
X0186193Y0022800D01*
X0183807Y0022800D01*
X0181601Y0021887D01*
X0180000Y0020285D01*
X0178399Y0021887D01*
X0177838Y0022119D01*
X0182055Y0022119D01*
X0183195Y0022591D01*
X0187084Y0026480D01*
X0190203Y0026480D01*
X0191550Y0027828D01*
X0191550Y0030683D01*
X0191959Y0030852D01*
X0192831Y0031724D01*
X0193306Y0032200D01*
X0194178Y0033072D01*
X0194547Y0033963D01*
X0206278Y0045694D01*
X0206747Y0045500D01*
X0209253Y0045500D01*
X0211569Y0046459D01*
X0213341Y0048231D01*
X0214300Y0050547D01*
X0214300Y0053053D01*
X0213341Y0055369D01*
X0211569Y0057141D01*
X0209253Y0058100D01*
X0206747Y0058100D01*
X0204431Y0057141D01*
X0202659Y0055369D01*
X0201700Y0053053D01*
X0201700Y0050547D01*
X0201894Y0050078D01*
X0191050Y0039234D01*
X0191050Y0040017D01*
X0190927Y0040475D01*
X0190690Y0040886D01*
X0190355Y0041221D01*
X0189945Y0041458D01*
X0189487Y0041580D01*
X0187200Y0041580D01*
X0187200Y0037980D01*
X0186800Y0037980D01*
X0186800Y0037580D01*
X0183203Y0037580D01*
X0182203Y0038580D01*
X0175797Y0038580D01*
X0174800Y0037583D01*
X0174800Y0038040D01*
X0170638Y0038040D01*
X0170638Y0038040D01*
X0170638Y0038040D01*
X0170638Y0041198D01*
X0173237Y0041198D01*
X0173695Y0041076D01*
X0174106Y0040839D01*
X0174441Y0040504D01*
X0174678Y0040093D01*
X0174800Y0039635D01*
X0174800Y0038040D01*
X0170638Y0038040D01*
X0170638Y0037376D02*
X0170638Y0037376D01*
X0170638Y0035778D02*
X0170638Y0035778D01*
X0167284Y0034179D02*
X0165063Y0034179D01*
X0165063Y0032581D02*
X0165976Y0032581D01*
X0165976Y0030982D02*
X0165063Y0030982D01*
X0165063Y0029384D02*
X0165976Y0029384D01*
X0166440Y0027785D02*
X0164600Y0027785D01*
X0163481Y0026187D02*
X0170958Y0026187D01*
X0172556Y0024588D02*
X0163025Y0024588D01*
X0161590Y0022990D02*
X0174155Y0022990D01*
X0176310Y0025219D02*
X0181439Y0025219D01*
X0187000Y0030780D01*
X0189700Y0033480D01*
X0190203Y0033480D01*
X0191550Y0034828D01*
X0191550Y0035350D01*
X0208000Y0051800D01*
X0214300Y0051763D02*
X0236200Y0051763D01*
X0236200Y0053361D02*
X0214172Y0053361D01*
X0213510Y0054960D02*
X0236200Y0054960D01*
X0236200Y0056558D02*
X0212151Y0056558D01*
X0203849Y0056558D02*
X0113000Y0056558D01*
X0113000Y0054960D02*
X0165250Y0054960D01*
X0165431Y0055141D02*
X0163659Y0053369D01*
X0162700Y0051053D01*
X0162700Y0048547D01*
X0163659Y0046231D01*
X0165431Y0044459D01*
X0167747Y0043500D01*
X0178253Y0043500D01*
X0180569Y0044459D01*
X0182341Y0046231D01*
X0183300Y0048547D01*
X0183300Y0051053D01*
X0182341Y0053369D01*
X0180569Y0055141D01*
X0178253Y0056100D01*
X0167747Y0056100D01*
X0165431Y0055141D01*
X0163656Y0053361D02*
X0113000Y0053361D01*
X0113000Y0051763D02*
X0162994Y0051763D01*
X0162700Y0050164D02*
X0150407Y0050164D01*
X0151686Y0048566D02*
X0162700Y0048566D01*
X0163354Y0046967D02*
X0152081Y0046967D01*
X0148000Y0046800D02*
X0148000Y0043468D01*
X0157086Y0034382D01*
X0160319Y0034382D01*
X0160401Y0034300D01*
X0165063Y0035778D02*
X0166720Y0035778D01*
X0166476Y0037376D02*
X0165063Y0037376D01*
X0165063Y0038975D02*
X0166476Y0038975D01*
X0166905Y0040573D02*
X0164841Y0040573D01*
X0167094Y0043770D02*
X0152082Y0043770D01*
X0151824Y0045369D02*
X0164522Y0045369D01*
X0170638Y0040573D02*
X0170638Y0040573D01*
X0170638Y0038975D02*
X0170638Y0038975D01*
X0174371Y0040573D02*
X0183129Y0040573D01*
X0183073Y0040475D02*
X0182950Y0040017D01*
X0182950Y0037980D01*
X0186800Y0037980D01*
X0186800Y0041580D01*
X0184513Y0041580D01*
X0184055Y0041458D01*
X0183645Y0041221D01*
X0183310Y0040886D01*
X0183073Y0040475D01*
X0182950Y0038975D02*
X0174800Y0038975D01*
X0178906Y0043770D02*
X0195586Y0043770D01*
X0197185Y0045369D02*
X0181478Y0045369D01*
X0182646Y0046967D02*
X0198783Y0046967D01*
X0200382Y0048566D02*
X0183300Y0048566D01*
X0183300Y0050164D02*
X0201858Y0050164D01*
X0201700Y0051763D02*
X0183006Y0051763D01*
X0182344Y0053361D02*
X0201828Y0053361D01*
X0202490Y0054960D02*
X0180750Y0054960D01*
X0184142Y0059643D02*
X0185044Y0059500D01*
X0185500Y0059500D01*
X0185956Y0059500D01*
X0186858Y0059643D01*
X0187726Y0059925D01*
X0188540Y0060339D01*
X0189278Y0060876D01*
X0189924Y0061522D01*
X0190461Y0062260D01*
X0190875Y0063074D01*
X0191157Y0063942D01*
X0191300Y0064844D01*
X0191300Y0069300D01*
X0191300Y0073756D01*
X0191157Y0074658D01*
X0190875Y0075526D01*
X0190461Y0076340D01*
X0189924Y0077078D01*
X0189278Y0077724D01*
X0188540Y0078261D01*
X0187726Y0078675D01*
X0186858Y0078957D01*
X0185956Y0079100D01*
X0185500Y0079100D01*
X0185500Y0069300D01*
X0191300Y0069300D01*
X0185500Y0069300D01*
X0185500Y0069300D01*
X0185500Y0069300D01*
X0185500Y0059500D01*
X0185500Y0069300D01*
X0185500Y0069300D01*
X0185500Y0069300D01*
X0179700Y0069300D01*
X0179700Y0073756D01*
X0179843Y0074658D01*
X0180125Y0075526D01*
X0180539Y0076340D01*
X0181076Y0077078D01*
X0181722Y0077724D01*
X0182460Y0078261D01*
X0183274Y0078675D01*
X0184142Y0078957D01*
X0185044Y0079100D01*
X0185500Y0079100D01*
X0185500Y0069300D01*
X0179700Y0069300D01*
X0179700Y0064844D01*
X0179843Y0063942D01*
X0180125Y0063074D01*
X0180539Y0062260D01*
X0181076Y0061522D01*
X0181722Y0060876D01*
X0182460Y0060339D01*
X0183274Y0059925D01*
X0184142Y0059643D01*
X0183795Y0059755D02*
X0164077Y0059755D01*
X0164569Y0059959D02*
X0166341Y0061731D01*
X0167300Y0064047D01*
X0167300Y0074553D01*
X0166341Y0076869D01*
X0164569Y0078641D01*
X0162253Y0079600D01*
X0159747Y0079600D01*
X0157431Y0078641D01*
X0155659Y0076869D01*
X0154700Y0074553D01*
X0154700Y0064047D01*
X0155659Y0061731D01*
X0157431Y0059959D01*
X0159747Y0059000D01*
X0162253Y0059000D01*
X0164569Y0059959D01*
X0165963Y0061354D02*
X0181244Y0061354D01*
X0180187Y0062952D02*
X0166847Y0062952D01*
X0167300Y0064551D02*
X0179746Y0064551D01*
X0179700Y0066149D02*
X0167300Y0066149D01*
X0167300Y0067748D02*
X0179700Y0067748D01*
X0179700Y0069346D02*
X0167300Y0069346D01*
X0167300Y0070945D02*
X0179700Y0070945D01*
X0179700Y0072543D02*
X0167300Y0072543D01*
X0167300Y0074142D02*
X0179761Y0074142D01*
X0180234Y0075740D02*
X0166808Y0075740D01*
X0165871Y0077339D02*
X0181337Y0077339D01*
X0184081Y0078937D02*
X0163853Y0078937D01*
X0158147Y0078937D02*
X0120247Y0078937D01*
X0121845Y0077339D02*
X0156129Y0077339D01*
X0155192Y0075740D02*
X0123444Y0075740D01*
X0125042Y0074142D02*
X0154700Y0074142D01*
X0154700Y0072543D02*
X0126641Y0072543D01*
X0128239Y0070945D02*
X0154700Y0070945D01*
X0154700Y0069346D02*
X0129838Y0069346D01*
X0131436Y0067748D02*
X0154700Y0067748D01*
X0154700Y0066149D02*
X0133035Y0066149D01*
X0136021Y0064551D02*
X0154700Y0064551D01*
X0155153Y0062952D02*
X0136940Y0062952D01*
X0137081Y0061354D02*
X0156037Y0061354D01*
X0157923Y0059755D02*
X0136570Y0059755D01*
X0133000Y0061800D02*
X0114000Y0080800D01*
X0112515Y0080800D01*
X0106515Y0086800D01*
X0105000Y0086800D01*
X0118820Y0082134D02*
X0121180Y0082134D01*
X0118648Y0080536D02*
X0236200Y0080536D01*
X0236200Y0082134D02*
X0218820Y0082134D01*
X0220224Y0083733D02*
X0236200Y0083733D01*
X0236200Y0085332D02*
X0220886Y0085332D01*
X0221000Y0086930D02*
X0236200Y0086930D01*
X0236200Y0088529D02*
X0220778Y0088529D01*
X0211180Y0082134D02*
X0208820Y0082134D01*
X0201180Y0082134D02*
X0198820Y0082134D01*
X0191180Y0082134D02*
X0188820Y0082134D01*
X0186919Y0078937D02*
X0236200Y0078937D01*
X0236200Y0077339D02*
X0210330Y0077339D01*
X0209253Y0077785D02*
X0211569Y0076826D01*
X0213341Y0075054D01*
X0214300Y0072738D01*
X0214300Y0070232D01*
X0213341Y0067916D01*
X0211569Y0066144D01*
X0209253Y0065185D01*
X0206747Y0065185D01*
X0204431Y0066144D01*
X0202659Y0067916D01*
X0201700Y0070232D01*
X0201700Y0072738D01*
X0202659Y0075054D01*
X0204431Y0076826D01*
X0206747Y0077785D01*
X0209253Y0077785D01*
X0205670Y0077339D02*
X0189663Y0077339D01*
X0190766Y0075740D02*
X0203346Y0075740D01*
X0202281Y0074142D02*
X0191239Y0074142D01*
X0191300Y0072543D02*
X0201700Y0072543D01*
X0201700Y0070945D02*
X0191300Y0070945D01*
X0191300Y0069346D02*
X0202067Y0069346D01*
X0202828Y0067748D02*
X0191300Y0067748D01*
X0191300Y0066149D02*
X0204426Y0066149D01*
X0211574Y0066149D02*
X0236200Y0066149D01*
X0236200Y0064551D02*
X0191254Y0064551D01*
X0190813Y0062952D02*
X0236200Y0062952D01*
X0236200Y0061354D02*
X0189756Y0061354D01*
X0187204Y0059755D02*
X0236200Y0059755D01*
X0236200Y0058157D02*
X0134869Y0058157D01*
X0131131Y0058157D02*
X0113000Y0058157D01*
X0113000Y0059755D02*
X0129430Y0059755D01*
X0128919Y0061354D02*
X0113000Y0061354D01*
X0113000Y0062952D02*
X0127464Y0062952D01*
X0125865Y0064551D02*
X0113000Y0064551D01*
X0113000Y0066149D02*
X0124267Y0066149D01*
X0122668Y0067748D02*
X0113000Y0067748D01*
X0113000Y0069346D02*
X0121070Y0069346D01*
X0119471Y0070945D02*
X0113000Y0070945D01*
X0113000Y0072543D02*
X0117873Y0072543D01*
X0116274Y0074142D02*
X0113000Y0074142D01*
X0113000Y0075740D02*
X0114675Y0075740D01*
X0113077Y0077339D02*
X0113000Y0077339D01*
X0128820Y0082134D02*
X0131180Y0082134D01*
X0138820Y0082134D02*
X0141180Y0082134D01*
X0148820Y0082134D02*
X0151180Y0082134D01*
X0158820Y0082134D02*
X0161180Y0082134D01*
X0168820Y0082134D02*
X0171180Y0082134D01*
X0178820Y0082134D02*
X0181180Y0082134D01*
X0185500Y0078937D02*
X0185500Y0078937D01*
X0185500Y0077339D02*
X0185500Y0077339D01*
X0185500Y0075740D02*
X0185500Y0075740D01*
X0185500Y0074142D02*
X0185500Y0074142D01*
X0185500Y0072543D02*
X0185500Y0072543D01*
X0185500Y0070945D02*
X0185500Y0070945D01*
X0185500Y0069346D02*
X0185500Y0069346D01*
X0185500Y0067748D02*
X0185500Y0067748D01*
X0185500Y0066149D02*
X0185500Y0066149D01*
X0185500Y0064551D02*
X0185500Y0064551D01*
X0185500Y0062952D02*
X0185500Y0062952D01*
X0185500Y0061354D02*
X0185500Y0061354D01*
X0185500Y0059755D02*
X0185500Y0059755D01*
X0213172Y0067748D02*
X0236200Y0067748D01*
X0236200Y0069346D02*
X0213933Y0069346D01*
X0214300Y0070945D02*
X0236200Y0070945D01*
X0236200Y0072543D02*
X0214300Y0072543D01*
X0213719Y0074142D02*
X0236200Y0074142D01*
X0236200Y0075740D02*
X0212654Y0075740D01*
X0214142Y0050164D02*
X0236200Y0050164D01*
X0236200Y0048566D02*
X0213479Y0048566D01*
X0212077Y0046967D02*
X0236200Y0046967D01*
X0236200Y0045369D02*
X0205953Y0045369D01*
X0204354Y0043770D02*
X0236200Y0043770D01*
X0236200Y0042172D02*
X0202756Y0042172D01*
X0201157Y0040573D02*
X0236200Y0040573D01*
X0236200Y0038975D02*
X0199559Y0038975D01*
X0197960Y0037376D02*
X0202716Y0037376D01*
X0202560Y0037220D02*
X0202323Y0036810D01*
X0202200Y0036352D01*
X0202200Y0032465D01*
X0207650Y0032465D01*
X0207650Y0037915D01*
X0203763Y0037915D01*
X0203305Y0037792D01*
X0202895Y0037555D01*
X0202560Y0037220D01*
X0202200Y0035778D02*
X0196362Y0035778D01*
X0194763Y0034179D02*
X0202200Y0034179D01*
X0202200Y0032581D02*
X0193687Y0032581D01*
X0192089Y0030982D02*
X0202200Y0030982D01*
X0202200Y0031765D02*
X0202200Y0027878D01*
X0202323Y0027420D01*
X0202560Y0027010D01*
X0202895Y0026675D01*
X0203305Y0026438D01*
X0203763Y0026315D01*
X0207650Y0026315D01*
X0207650Y0031765D01*
X0202200Y0031765D01*
X0202200Y0029384D02*
X0191550Y0029384D01*
X0191507Y0027785D02*
X0202225Y0027785D01*
X0207650Y0027785D02*
X0208350Y0027785D01*
X0208350Y0029384D02*
X0207650Y0029384D01*
X0207650Y0030982D02*
X0208350Y0030982D01*
X0208350Y0031765D02*
X0208350Y0026315D01*
X0212237Y0026315D01*
X0212695Y0026438D01*
X0213105Y0026675D01*
X0213440Y0027010D01*
X0213677Y0027420D01*
X0213800Y0027878D01*
X0213800Y0031765D01*
X0208350Y0031765D01*
X0208350Y0032465D01*
X0207650Y0032465D01*
X0207650Y0031765D01*
X0208350Y0031765D01*
X0208350Y0032465D02*
X0213800Y0032465D01*
X0213800Y0036352D01*
X0213677Y0036810D01*
X0213440Y0037220D01*
X0213105Y0037555D01*
X0212695Y0037792D01*
X0212237Y0037915D01*
X0208350Y0037915D01*
X0208350Y0032465D01*
X0208350Y0032581D02*
X0207650Y0032581D01*
X0207650Y0034179D02*
X0208350Y0034179D01*
X0208350Y0035778D02*
X0207650Y0035778D01*
X0207650Y0037376D02*
X0208350Y0037376D01*
X0213284Y0037376D02*
X0236200Y0037376D01*
X0236200Y0035778D02*
X0213800Y0035778D01*
X0213800Y0034179D02*
X0236200Y0034179D01*
X0236200Y0032581D02*
X0213800Y0032581D01*
X0213800Y0030982D02*
X0236200Y0030982D01*
X0236200Y0029384D02*
X0213800Y0029384D01*
X0213775Y0027785D02*
X0236200Y0027785D01*
X0236200Y0026187D02*
X0186790Y0026187D01*
X0185192Y0024588D02*
X0236200Y0024588D01*
X0236200Y0022990D02*
X0183593Y0022990D01*
X0181106Y0021391D02*
X0178894Y0021391D01*
X0171106Y0021391D02*
X0168894Y0021391D01*
X0161106Y0021391D02*
X0158894Y0021391D01*
X0145861Y0024976D02*
X0145493Y0024976D01*
X0145493Y0028561D01*
X0145493Y0029608D01*
X0145861Y0029608D01*
X0145861Y0024976D01*
X0145861Y0026187D02*
X0145493Y0026187D01*
X0145493Y0027785D02*
X0145861Y0027785D01*
X0145861Y0029384D02*
X0145493Y0029384D01*
X0145493Y0029976D02*
X0141515Y0029976D01*
X0141515Y0031998D01*
X0141638Y0032455D01*
X0141875Y0032866D01*
X0142210Y0033201D01*
X0142620Y0033438D01*
X0143078Y0033561D01*
X0145493Y0033561D01*
X0145493Y0029976D01*
X0145493Y0030982D02*
X0145861Y0030982D01*
X0145861Y0032581D02*
X0145493Y0032581D01*
X0149644Y0032581D02*
X0149676Y0032581D01*
X0152905Y0034179D02*
X0113000Y0034179D01*
X0113000Y0032581D02*
X0124956Y0032581D01*
X0123169Y0030982D02*
X0113000Y0030982D01*
X0113000Y0029384D02*
X0122386Y0029384D01*
X0122058Y0027785D02*
X0113000Y0027785D01*
X0113000Y0026187D02*
X0122076Y0026187D01*
X0122738Y0024588D02*
X0113000Y0024588D01*
X0113000Y0022990D02*
X0124018Y0022990D01*
X0121106Y0021391D02*
X0118894Y0021391D01*
X0128894Y0021391D02*
X0131106Y0021391D01*
X0131982Y0022990D02*
X0141515Y0022990D01*
X0141515Y0024588D02*
X0133262Y0024588D01*
X0133924Y0026187D02*
X0141515Y0026187D01*
X0141515Y0027785D02*
X0133942Y0027785D01*
X0133614Y0029384D02*
X0141515Y0029384D01*
X0141515Y0030982D02*
X0132831Y0030982D01*
X0131044Y0032581D02*
X0141710Y0032581D01*
X0133319Y0036853D02*
X0133082Y0036443D01*
X0132747Y0036108D01*
X0132337Y0035871D01*
X0131879Y0035748D01*
X0128184Y0035748D01*
X0128184Y0041005D01*
X0127816Y0041005D01*
X0127816Y0035748D01*
X0124121Y0035748D01*
X0123663Y0035871D01*
X0123253Y0036108D01*
X0122918Y0036443D01*
X0122681Y0036853D01*
X0122558Y0037311D01*
X0122558Y0041005D01*
X0127816Y0041005D01*
X0127816Y0041374D01*
X0127816Y0046631D01*
X0124121Y0046631D01*
X0123663Y0046509D01*
X0123253Y0046272D01*
X0122918Y0045937D01*
X0122681Y0045526D01*
X0122558Y0045068D01*
X0122558Y0041374D01*
X0127816Y0041374D01*
X0128184Y0041374D01*
X0128184Y0046631D01*
X0131879Y0046631D01*
X0132337Y0046509D01*
X0132747Y0046272D01*
X0133082Y0045937D01*
X0133319Y0045526D01*
X0133442Y0045068D01*
X0133442Y0041374D01*
X0128184Y0041374D01*
X0128184Y0041005D01*
X0133442Y0041005D01*
X0133442Y0037311D01*
X0133319Y0036853D01*
X0133442Y0037376D02*
X0149708Y0037376D01*
X0151306Y0035778D02*
X0131989Y0035778D01*
X0128184Y0035778D02*
X0127816Y0035778D01*
X0127816Y0037376D02*
X0128184Y0037376D01*
X0128184Y0038975D02*
X0127816Y0038975D01*
X0127816Y0040573D02*
X0128184Y0040573D01*
X0128184Y0042172D02*
X0127816Y0042172D01*
X0127816Y0043770D02*
X0128184Y0043770D01*
X0128184Y0045369D02*
X0127816Y0045369D01*
X0122639Y0045369D02*
X0113000Y0045369D01*
X0113000Y0043770D02*
X0122558Y0043770D01*
X0122558Y0042172D02*
X0113000Y0042172D01*
X0113000Y0040573D02*
X0122558Y0040573D01*
X0122558Y0038975D02*
X0113000Y0038975D01*
X0113000Y0037376D02*
X0122558Y0037376D01*
X0124011Y0035778D02*
X0113000Y0035778D01*
X0133442Y0038975D02*
X0148109Y0038975D01*
X0146511Y0040573D02*
X0133442Y0040573D01*
X0133442Y0042172D02*
X0145182Y0042172D01*
X0144900Y0043770D02*
X0133442Y0043770D01*
X0133361Y0045369D02*
X0144175Y0045369D01*
X0143919Y0046967D02*
X0113000Y0046967D01*
X0113000Y0048566D02*
X0144314Y0048566D01*
X0145593Y0050164D02*
X0113000Y0050164D01*
X0153680Y0042172D02*
X0193988Y0042172D01*
X0192389Y0040573D02*
X0190871Y0040573D01*
X0187200Y0040573D02*
X0186800Y0040573D01*
X0186800Y0038975D02*
X0187200Y0038975D01*
X0179000Y0034280D02*
X0178000Y0033280D01*
X0178000Y0029300D01*
X0176310Y0025219D02*
X0170969Y0030560D01*
X0170638Y0030560D01*
X0173992Y0034179D02*
X0174450Y0034179D01*
X0155961Y0040573D02*
X0155279Y0040573D01*
X0141106Y0021391D02*
X0138894Y0021391D01*
X0188894Y0021391D02*
X0191106Y0021391D01*
X0198894Y0021391D02*
X0201106Y0021391D01*
X0208894Y0021391D02*
X0211962Y0021391D01*
X0210376Y0019793D02*
X0210255Y0019793D01*
X0214800Y0019793D02*
X0215200Y0019793D01*
X0215200Y0021391D02*
X0214800Y0021391D01*
X0215200Y0022300D02*
X0215200Y0017000D01*
X0220500Y0017000D01*
X0220500Y0017233D01*
X0220365Y0018088D01*
X0220097Y0018911D01*
X0219704Y0019683D01*
X0219195Y0020383D01*
X0218583Y0020995D01*
X0217883Y0021504D01*
X0217111Y0021897D01*
X0216288Y0022165D01*
X0215433Y0022300D01*
X0215200Y0022300D01*
X0218038Y0021391D02*
X0236200Y0021391D01*
X0236200Y0019793D02*
X0219624Y0019793D01*
X0220330Y0018194D02*
X0236200Y0018194D01*
X0236200Y0016596D02*
X0220500Y0016596D01*
X0220197Y0014997D02*
X0236200Y0014997D01*
X0215200Y0018194D02*
X0214800Y0018194D01*
D21*
X0178000Y0029300D03*
X0159400Y0026500D03*
X0148000Y0046800D03*
X0133000Y0061800D03*
D22*
X0154339Y0029792D02*
X0156108Y0029792D01*
X0159400Y0026500D01*
X0159400Y0029559D01*
X0160401Y0030560D01*
X0154339Y0029792D02*
X0154339Y0024792D01*
M02*
