G75*
%MOIN*%
%OFA0B0*%
%FSLAX25Y25*%
%IPPOS*%
%LPD*%
%AMOC8*
5,1,8,0,0,1.08239X$1,22.5*
%
%ADD10C,0.00000*%
%ADD11R,0.08000X0.08000*%
%ADD12C,0.08000*%
%ADD13C,0.08000*%
%ADD14R,0.07283X0.07283*%
%ADD15C,0.07283*%
%ADD16C,0.07400*%
%ADD17C,0.03562*%
%ADD18C,0.01600*%
D10*
X0088000Y0011800D02*
X0088000Y0091800D01*
X0238000Y0091800D01*
X0238000Y0011800D01*
X0088000Y0011800D01*
D11*
X0208000Y0032115D03*
D12*
X0208000Y0051800D03*
X0208000Y0071485D03*
D13*
X0185500Y0073300D02*
X0185500Y0065300D01*
X0161000Y0065300D02*
X0161000Y0073300D01*
X0169000Y0049800D02*
X0177000Y0049800D01*
D14*
X0128000Y0041190D03*
D15*
X0128000Y0027410D03*
D16*
X0125000Y0016800D03*
X0115000Y0016800D03*
X0105000Y0016800D03*
X0135000Y0016800D03*
X0145000Y0016800D03*
X0155000Y0016800D03*
X0165000Y0016800D03*
X0175000Y0016800D03*
X0185000Y0016800D03*
X0195000Y0016800D03*
X0205000Y0016800D03*
X0215000Y0016800D03*
X0215000Y0086800D03*
X0205000Y0086800D03*
X0195000Y0086800D03*
X0185000Y0086800D03*
X0175000Y0086800D03*
X0165000Y0086800D03*
X0155000Y0086800D03*
X0145000Y0086800D03*
X0135000Y0086800D03*
X0125000Y0086800D03*
X0115000Y0086800D03*
X0105000Y0086800D03*
D17*
X0133000Y0061800D03*
X0148000Y0046800D03*
X0178000Y0029300D03*
X0159400Y0026500D03*
D18*
X0158399Y0021887D02*
X0156193Y0022800D01*
X0153807Y0022800D01*
X0151601Y0021887D01*
X0150000Y0020285D01*
X0148399Y0021887D01*
X0146193Y0022800D01*
X0143807Y0022800D01*
X0141601Y0021887D01*
X0140000Y0020285D01*
X0138399Y0021887D01*
X0136193Y0022800D01*
X0133807Y0022800D01*
X0131601Y0021887D01*
X0130000Y0020285D01*
X0128399Y0021887D01*
X0128201Y0021968D01*
X0128428Y0021969D01*
X0129274Y0022102D01*
X0130089Y0022367D01*
X0130852Y0022756D01*
X0131545Y0023260D01*
X0132151Y0023865D01*
X0132654Y0024558D01*
X0133043Y0025321D01*
X0133308Y0026136D01*
X0133442Y0026982D01*
X0133442Y0027226D01*
X0128184Y0027226D01*
X0128184Y0027594D01*
X0133442Y0027594D01*
X0133442Y0027839D01*
X0133308Y0028685D01*
X0133043Y0029499D01*
X0132654Y0030262D01*
X0132151Y0030955D01*
X0131545Y0031561D01*
X0130852Y0032064D01*
X0130089Y0032453D01*
X0129274Y0032718D01*
X0128428Y0032852D01*
X0128184Y0032852D01*
X0128184Y0027595D01*
X0127816Y0027595D01*
X0127816Y0032852D01*
X0127572Y0032852D01*
X0126726Y0032718D01*
X0125911Y0032453D01*
X0125148Y0032064D01*
X0124455Y0031561D01*
X0123849Y0030955D01*
X0123346Y0030262D01*
X0122957Y0029499D01*
X0122692Y0028685D01*
X0122558Y0027839D01*
X0122558Y0027594D01*
X0127816Y0027594D01*
X0127816Y0027226D01*
X0122558Y0027226D01*
X0122558Y0026982D01*
X0122692Y0026136D01*
X0122957Y0025321D01*
X0123346Y0024558D01*
X0123849Y0023865D01*
X0124455Y0023260D01*
X0125087Y0022800D01*
X0123807Y0022800D01*
X0121601Y0021887D01*
X0120000Y0020285D01*
X0118399Y0021887D01*
X0116193Y0022800D01*
X0113807Y0022800D01*
X0113000Y0022466D01*
X0113000Y0081134D01*
X0113807Y0080800D01*
X0116193Y0080800D01*
X0118399Y0081713D01*
X0120000Y0083315D01*
X0121601Y0081713D01*
X0123807Y0080800D01*
X0126193Y0080800D01*
X0128399Y0081713D01*
X0130000Y0083315D01*
X0131601Y0081713D01*
X0133807Y0080800D01*
X0136193Y0080800D01*
X0138399Y0081713D01*
X0140000Y0083315D01*
X0141601Y0081713D01*
X0143807Y0080800D01*
X0146193Y0080800D01*
X0148399Y0081713D01*
X0150000Y0083315D01*
X0151601Y0081713D01*
X0153807Y0080800D01*
X0156193Y0080800D01*
X0158399Y0081713D01*
X0160000Y0083315D01*
X0161601Y0081713D01*
X0163807Y0080800D01*
X0166193Y0080800D01*
X0168399Y0081713D01*
X0170000Y0083315D01*
X0171601Y0081713D01*
X0173807Y0080800D01*
X0176193Y0080800D01*
X0178399Y0081713D01*
X0180087Y0083401D01*
X0180299Y0083914D01*
X0180805Y0083217D01*
X0181417Y0082605D01*
X0182117Y0082096D01*
X0182889Y0081703D01*
X0183712Y0081435D01*
X0184567Y0081300D01*
X0184800Y0081300D01*
X0184800Y0086600D01*
X0185200Y0086600D01*
X0185200Y0081300D01*
X0185433Y0081300D01*
X0186288Y0081435D01*
X0187111Y0081703D01*
X0187883Y0082096D01*
X0188583Y0082605D01*
X0189195Y0083217D01*
X0189701Y0083914D01*
X0189913Y0083401D01*
X0191601Y0081713D01*
X0193807Y0080800D01*
X0196193Y0080800D01*
X0198399Y0081713D01*
X0200000Y0083315D01*
X0201601Y0081713D01*
X0203807Y0080800D01*
X0206193Y0080800D01*
X0208399Y0081713D01*
X0210000Y0083315D01*
X0211601Y0081713D01*
X0213807Y0080800D01*
X0216193Y0080800D01*
X0218399Y0081713D01*
X0220087Y0083401D01*
X0221000Y0085607D01*
X0221000Y0087993D01*
X0220169Y0090000D01*
X0236200Y0090000D01*
X0236200Y0013600D01*
X0220169Y0013600D01*
X0221000Y0015607D01*
X0221000Y0017993D01*
X0220087Y0020199D01*
X0218399Y0021887D01*
X0216193Y0022800D01*
X0213807Y0022800D01*
X0211601Y0021887D01*
X0209913Y0020199D01*
X0209701Y0019686D01*
X0209195Y0020383D01*
X0208583Y0020995D01*
X0207883Y0021504D01*
X0207111Y0021897D01*
X0206288Y0022165D01*
X0205433Y0022300D01*
X0205200Y0022300D01*
X0205200Y0017000D01*
X0204800Y0017000D01*
X0204800Y0022300D01*
X0204567Y0022300D01*
X0203712Y0022165D01*
X0202889Y0021897D01*
X0202117Y0021504D01*
X0201417Y0020995D01*
X0200805Y0020383D01*
X0200299Y0019686D01*
X0200087Y0020199D01*
X0198399Y0021887D01*
X0196193Y0022800D01*
X0193807Y0022800D01*
X0191601Y0021887D01*
X0190000Y0020285D01*
X0188399Y0021887D01*
X0186193Y0022800D01*
X0183807Y0022800D01*
X0181601Y0021887D01*
X0180000Y0020285D01*
X0178399Y0021887D01*
X0176193Y0022800D01*
X0173807Y0022800D01*
X0171601Y0021887D01*
X0170000Y0020285D01*
X0168399Y0021887D01*
X0166193Y0022800D01*
X0163807Y0022800D01*
X0161601Y0021887D01*
X0160000Y0020285D01*
X0158399Y0021887D01*
X0158894Y0021391D02*
X0161106Y0021391D01*
X0168894Y0021391D02*
X0171106Y0021391D01*
X0178894Y0021391D02*
X0181106Y0021391D01*
X0188894Y0021391D02*
X0191106Y0021391D01*
X0198894Y0021391D02*
X0201962Y0021391D01*
X0200376Y0019793D02*
X0200255Y0019793D01*
X0204800Y0019793D02*
X0205200Y0019793D01*
X0205200Y0021391D02*
X0204800Y0021391D01*
X0208038Y0021391D02*
X0211106Y0021391D01*
X0209745Y0019793D02*
X0209624Y0019793D01*
X0205200Y0018194D02*
X0204800Y0018194D01*
X0218894Y0021391D02*
X0236200Y0021391D01*
X0236200Y0019793D02*
X0220255Y0019793D01*
X0220917Y0018194D02*
X0236200Y0018194D01*
X0236200Y0016596D02*
X0221000Y0016596D01*
X0220748Y0014997D02*
X0236200Y0014997D01*
X0236200Y0022990D02*
X0131173Y0022990D01*
X0132669Y0024588D02*
X0236200Y0024588D01*
X0236200Y0026187D02*
X0213324Y0026187D01*
X0212953Y0025815D02*
X0214300Y0027162D01*
X0214300Y0037068D01*
X0212953Y0038415D01*
X0203047Y0038415D01*
X0201700Y0037068D01*
X0201700Y0027162D01*
X0203047Y0025815D01*
X0212953Y0025815D01*
X0214300Y0027785D02*
X0236200Y0027785D01*
X0236200Y0029384D02*
X0214300Y0029384D01*
X0214300Y0030982D02*
X0236200Y0030982D01*
X0236200Y0032581D02*
X0214300Y0032581D01*
X0214300Y0034179D02*
X0236200Y0034179D01*
X0236200Y0035778D02*
X0214300Y0035778D01*
X0213991Y0037376D02*
X0236200Y0037376D01*
X0236200Y0038975D02*
X0133942Y0038975D01*
X0133942Y0040573D02*
X0236200Y0040573D01*
X0236200Y0042172D02*
X0133942Y0042172D01*
X0133942Y0043770D02*
X0145258Y0043770D01*
X0145688Y0043340D02*
X0147188Y0042719D01*
X0148812Y0042719D01*
X0150312Y0043340D01*
X0151460Y0044488D01*
X0152081Y0045988D01*
X0152081Y0047612D01*
X0151460Y0049112D01*
X0150312Y0050260D01*
X0148812Y0050881D01*
X0148303Y0050881D01*
X0137081Y0062103D01*
X0137081Y0062612D01*
X0136460Y0064112D01*
X0135312Y0065260D01*
X0133812Y0065881D01*
X0132188Y0065881D01*
X0130688Y0065260D01*
X0129540Y0064112D01*
X0128919Y0062612D01*
X0128919Y0060988D01*
X0129540Y0059488D01*
X0130688Y0058340D01*
X0132188Y0057719D01*
X0132697Y0057719D01*
X0143919Y0046497D01*
X0143919Y0045988D01*
X0144540Y0044488D01*
X0145688Y0043340D01*
X0144175Y0045369D02*
X0133942Y0045369D01*
X0133942Y0045784D02*
X0132594Y0047131D01*
X0123406Y0047131D01*
X0122058Y0045784D01*
X0122058Y0036595D01*
X0123406Y0035248D01*
X0132594Y0035248D01*
X0133942Y0036595D01*
X0133942Y0045784D01*
X0132759Y0046967D02*
X0143449Y0046967D01*
X0141850Y0048566D02*
X0113000Y0048566D01*
X0113000Y0050164D02*
X0140252Y0050164D01*
X0138653Y0051763D02*
X0113000Y0051763D01*
X0113000Y0053361D02*
X0137055Y0053361D01*
X0135456Y0054960D02*
X0113000Y0054960D01*
X0113000Y0056558D02*
X0133858Y0056558D01*
X0131131Y0058157D02*
X0113000Y0058157D01*
X0113000Y0059755D02*
X0129430Y0059755D01*
X0128919Y0061354D02*
X0113000Y0061354D01*
X0113000Y0062952D02*
X0129060Y0062952D01*
X0129979Y0064551D02*
X0113000Y0064551D01*
X0113000Y0066149D02*
X0155200Y0066149D01*
X0155200Y0064844D02*
X0155343Y0063942D01*
X0155625Y0063074D01*
X0156039Y0062260D01*
X0156576Y0061522D01*
X0157222Y0060876D01*
X0157960Y0060339D01*
X0158774Y0059925D01*
X0159642Y0059643D01*
X0160544Y0059500D01*
X0161000Y0059500D01*
X0161456Y0059500D01*
X0162358Y0059643D01*
X0163226Y0059925D01*
X0164040Y0060339D01*
X0164778Y0060876D01*
X0165424Y0061522D01*
X0165961Y0062260D01*
X0166375Y0063074D01*
X0166657Y0063942D01*
X0166800Y0064844D01*
X0166800Y0069300D01*
X0166800Y0073756D01*
X0166657Y0074658D01*
X0166375Y0075526D01*
X0165961Y0076340D01*
X0165424Y0077078D01*
X0164778Y0077724D01*
X0164040Y0078261D01*
X0163226Y0078675D01*
X0162358Y0078957D01*
X0161456Y0079100D01*
X0161000Y0079100D01*
X0161000Y0069300D01*
X0166800Y0069300D01*
X0161000Y0069300D01*
X0161000Y0069300D01*
X0161000Y0069300D01*
X0161000Y0059500D01*
X0161000Y0069300D01*
X0161000Y0069300D01*
X0161000Y0069300D01*
X0155200Y0069300D01*
X0155200Y0073756D01*
X0155343Y0074658D01*
X0155625Y0075526D01*
X0156039Y0076340D01*
X0156576Y0077078D01*
X0157222Y0077724D01*
X0157960Y0078261D01*
X0158774Y0078675D01*
X0159642Y0078957D01*
X0160544Y0079100D01*
X0161000Y0079100D01*
X0161000Y0069300D01*
X0155200Y0069300D01*
X0155200Y0064844D01*
X0155246Y0064551D02*
X0136021Y0064551D01*
X0136940Y0062952D02*
X0155687Y0062952D01*
X0156744Y0061354D02*
X0137830Y0061354D01*
X0139429Y0059755D02*
X0159295Y0059755D01*
X0161000Y0059755D02*
X0161000Y0059755D01*
X0161000Y0061354D02*
X0161000Y0061354D01*
X0161000Y0062952D02*
X0161000Y0062952D01*
X0161000Y0064551D02*
X0161000Y0064551D01*
X0161000Y0066149D02*
X0161000Y0066149D01*
X0161000Y0067748D02*
X0161000Y0067748D01*
X0161000Y0069346D02*
X0161000Y0069346D01*
X0161000Y0070945D02*
X0161000Y0070945D01*
X0161000Y0072543D02*
X0161000Y0072543D01*
X0161000Y0074142D02*
X0161000Y0074142D01*
X0161000Y0075740D02*
X0161000Y0075740D01*
X0161000Y0077339D02*
X0161000Y0077339D01*
X0161000Y0078937D02*
X0161000Y0078937D01*
X0159581Y0078937D02*
X0113000Y0078937D01*
X0113000Y0077339D02*
X0156837Y0077339D01*
X0155734Y0075740D02*
X0113000Y0075740D01*
X0113000Y0074142D02*
X0155261Y0074142D01*
X0155200Y0072543D02*
X0113000Y0072543D01*
X0113000Y0070945D02*
X0155200Y0070945D01*
X0155200Y0069346D02*
X0113000Y0069346D01*
X0113000Y0067748D02*
X0155200Y0067748D01*
X0166800Y0067748D02*
X0179200Y0067748D01*
X0179200Y0069346D02*
X0166800Y0069346D01*
X0166800Y0070945D02*
X0179200Y0070945D01*
X0179200Y0072543D02*
X0166800Y0072543D01*
X0166739Y0074142D02*
X0179200Y0074142D01*
X0179200Y0074553D02*
X0180159Y0076869D01*
X0181931Y0078641D01*
X0184247Y0079600D01*
X0186753Y0079600D01*
X0189069Y0078641D01*
X0190841Y0076869D01*
X0191800Y0074553D01*
X0191800Y0064047D01*
X0190841Y0061731D01*
X0189069Y0059959D01*
X0186753Y0059000D01*
X0184247Y0059000D01*
X0181931Y0059959D01*
X0180159Y0061731D01*
X0179200Y0064047D01*
X0179200Y0074553D01*
X0179692Y0075740D02*
X0166266Y0075740D01*
X0165163Y0077339D02*
X0180629Y0077339D01*
X0182647Y0078937D02*
X0162419Y0078937D01*
X0161180Y0082134D02*
X0158820Y0082134D01*
X0151180Y0082134D02*
X0148820Y0082134D01*
X0141180Y0082134D02*
X0138820Y0082134D01*
X0131180Y0082134D02*
X0128820Y0082134D01*
X0121180Y0082134D02*
X0118820Y0082134D01*
X0113000Y0080536D02*
X0236200Y0080536D01*
X0236200Y0082134D02*
X0218820Y0082134D01*
X0220224Y0083733D02*
X0236200Y0083733D01*
X0236200Y0085332D02*
X0220886Y0085332D01*
X0221000Y0086930D02*
X0236200Y0086930D01*
X0236200Y0088529D02*
X0220778Y0088529D01*
X0211180Y0082134D02*
X0208820Y0082134D01*
X0201180Y0082134D02*
X0198820Y0082134D01*
X0191180Y0082134D02*
X0187936Y0082134D01*
X0185200Y0082134D02*
X0184800Y0082134D01*
X0182064Y0082134D02*
X0178820Y0082134D01*
X0180224Y0083733D02*
X0180430Y0083733D01*
X0184800Y0083733D02*
X0185200Y0083733D01*
X0185200Y0085332D02*
X0184800Y0085332D01*
X0189570Y0083733D02*
X0189776Y0083733D01*
X0188353Y0078937D02*
X0236200Y0078937D01*
X0236200Y0077339D02*
X0190371Y0077339D01*
X0191308Y0075740D02*
X0204053Y0075740D01*
X0204222Y0075909D02*
X0203576Y0075263D01*
X0203039Y0074525D01*
X0202625Y0073711D01*
X0202343Y0072843D01*
X0202200Y0071942D01*
X0202200Y0071835D01*
X0207650Y0071835D01*
X0207650Y0071135D01*
X0208350Y0071135D01*
X0208350Y0065685D01*
X0208456Y0065685D01*
X0209358Y0065828D01*
X0210226Y0066110D01*
X0211040Y0066524D01*
X0211778Y0067061D01*
X0212424Y0067707D01*
X0212961Y0068445D01*
X0213375Y0069259D01*
X0213657Y0070127D01*
X0213800Y0071029D01*
X0213800Y0071135D01*
X0208350Y0071135D01*
X0208350Y0071835D01*
X0213800Y0071835D01*
X0213800Y0071942D01*
X0213657Y0072843D01*
X0213375Y0073711D01*
X0212961Y0074525D01*
X0212424Y0075263D01*
X0211778Y0075909D01*
X0211040Y0076446D01*
X0210226Y0076860D01*
X0209358Y0077142D01*
X0208456Y0077285D01*
X0208350Y0077285D01*
X0208350Y0071835D01*
X0207650Y0071835D01*
X0207650Y0077285D01*
X0207544Y0077285D01*
X0206642Y0077142D01*
X0205774Y0076860D01*
X0204960Y0076446D01*
X0204222Y0075909D01*
X0202844Y0074142D02*
X0191800Y0074142D01*
X0191800Y0072543D02*
X0202295Y0072543D01*
X0202200Y0071135D02*
X0202200Y0071029D01*
X0202343Y0070127D01*
X0202625Y0069259D01*
X0203039Y0068445D01*
X0203576Y0067707D01*
X0204222Y0067061D01*
X0204960Y0066524D01*
X0205774Y0066110D01*
X0206642Y0065828D01*
X0207544Y0065685D01*
X0207650Y0065685D01*
X0207650Y0071135D01*
X0202200Y0071135D01*
X0202213Y0070945D02*
X0191800Y0070945D01*
X0191800Y0069346D02*
X0202596Y0069346D01*
X0203546Y0067748D02*
X0191800Y0067748D01*
X0191800Y0066149D02*
X0205696Y0066149D01*
X0207650Y0066149D02*
X0208350Y0066149D01*
X0210304Y0066149D02*
X0236200Y0066149D01*
X0236200Y0064551D02*
X0191800Y0064551D01*
X0191347Y0062952D02*
X0236200Y0062952D01*
X0236200Y0061354D02*
X0190463Y0061354D01*
X0188577Y0059755D02*
X0236200Y0059755D01*
X0236200Y0058157D02*
X0141027Y0058157D01*
X0142626Y0056558D02*
X0203849Y0056558D01*
X0204431Y0057141D02*
X0202659Y0055369D01*
X0201700Y0053053D01*
X0201700Y0050547D01*
X0202659Y0048231D01*
X0204431Y0046459D01*
X0206747Y0045500D01*
X0209253Y0045500D01*
X0211569Y0046459D01*
X0213341Y0048231D01*
X0214300Y0050547D01*
X0214300Y0053053D01*
X0213341Y0055369D01*
X0211569Y0057141D01*
X0209253Y0058100D01*
X0206747Y0058100D01*
X0204431Y0057141D01*
X0202490Y0054960D02*
X0179649Y0054960D01*
X0180040Y0054761D02*
X0179226Y0055175D01*
X0178358Y0055457D01*
X0177456Y0055600D01*
X0173000Y0055600D01*
X0173000Y0049800D01*
X0173000Y0049800D01*
X0182800Y0049800D01*
X0182800Y0050256D01*
X0182657Y0051158D01*
X0182375Y0052026D01*
X0181961Y0052840D01*
X0181424Y0053578D01*
X0180778Y0054224D01*
X0180040Y0054761D01*
X0181582Y0053361D02*
X0201828Y0053361D01*
X0201700Y0051763D02*
X0182461Y0051763D01*
X0182800Y0050164D02*
X0201858Y0050164D01*
X0202521Y0048566D02*
X0182677Y0048566D01*
X0182657Y0048442D02*
X0182800Y0049344D01*
X0182800Y0049800D01*
X0173000Y0049800D01*
X0173000Y0049800D01*
X0173000Y0055600D01*
X0168544Y0055600D01*
X0167642Y0055457D01*
X0166774Y0055175D01*
X0165960Y0054761D01*
X0165222Y0054224D01*
X0164576Y0053578D01*
X0164039Y0052840D01*
X0163625Y0052026D01*
X0163343Y0051158D01*
X0163200Y0050256D01*
X0163200Y0049800D01*
X0173000Y0049800D01*
X0173000Y0044000D01*
X0177456Y0044000D01*
X0178358Y0044143D01*
X0179226Y0044425D01*
X0180040Y0044839D01*
X0180778Y0045376D01*
X0181424Y0046022D01*
X0181961Y0046760D01*
X0182375Y0047574D01*
X0182657Y0048442D01*
X0182066Y0046967D02*
X0203923Y0046967D01*
X0212077Y0046967D02*
X0236200Y0046967D01*
X0236200Y0048566D02*
X0213479Y0048566D01*
X0214142Y0050164D02*
X0236200Y0050164D01*
X0236200Y0051763D02*
X0214300Y0051763D01*
X0214172Y0053361D02*
X0236200Y0053361D01*
X0236200Y0054960D02*
X0213510Y0054960D01*
X0212151Y0056558D02*
X0236200Y0056558D01*
X0236200Y0045369D02*
X0180768Y0045369D01*
X0173000Y0045369D02*
X0173000Y0045369D01*
X0173000Y0044000D02*
X0173000Y0049800D01*
X0173000Y0049800D01*
X0173000Y0049800D01*
X0163200Y0049800D01*
X0163200Y0049344D01*
X0163343Y0048442D01*
X0163625Y0047574D01*
X0164039Y0046760D01*
X0164576Y0046022D01*
X0165222Y0045376D01*
X0165960Y0044839D01*
X0166774Y0044425D01*
X0167642Y0044143D01*
X0168544Y0044000D01*
X0173000Y0044000D01*
X0173000Y0046967D02*
X0173000Y0046967D01*
X0173000Y0048566D02*
X0173000Y0048566D01*
X0173000Y0050164D02*
X0173000Y0050164D01*
X0173000Y0051763D02*
X0173000Y0051763D01*
X0173000Y0053361D02*
X0173000Y0053361D01*
X0173000Y0054960D02*
X0173000Y0054960D01*
X0166351Y0054960D02*
X0144224Y0054960D01*
X0145823Y0053361D02*
X0164418Y0053361D01*
X0163539Y0051763D02*
X0147421Y0051763D01*
X0150407Y0050164D02*
X0163200Y0050164D01*
X0163323Y0048566D02*
X0151686Y0048566D01*
X0152081Y0046967D02*
X0163934Y0046967D01*
X0165232Y0045369D02*
X0151824Y0045369D01*
X0150742Y0043770D02*
X0236200Y0043770D01*
X0202009Y0037376D02*
X0133942Y0037376D01*
X0133124Y0035778D02*
X0201700Y0035778D01*
X0201700Y0034179D02*
X0113000Y0034179D01*
X0113000Y0032581D02*
X0126303Y0032581D01*
X0127816Y0032581D02*
X0128184Y0032581D01*
X0129697Y0032581D02*
X0201700Y0032581D01*
X0201700Y0030982D02*
X0132124Y0030982D01*
X0128184Y0030982D02*
X0127816Y0030982D01*
X0127816Y0029384D02*
X0128184Y0029384D01*
X0128184Y0027785D02*
X0127816Y0027785D01*
X0122919Y0029384D02*
X0113000Y0029384D01*
X0113000Y0027785D02*
X0122558Y0027785D01*
X0122684Y0026187D02*
X0113000Y0026187D01*
X0113000Y0024588D02*
X0123331Y0024588D01*
X0124826Y0022990D02*
X0113000Y0022990D01*
X0118894Y0021391D02*
X0121106Y0021391D01*
X0128894Y0021391D02*
X0131106Y0021391D01*
X0138894Y0021391D02*
X0141106Y0021391D01*
X0148894Y0021391D02*
X0151106Y0021391D01*
X0133316Y0026187D02*
X0202676Y0026187D01*
X0201700Y0027785D02*
X0133442Y0027785D01*
X0133081Y0029384D02*
X0201700Y0029384D01*
X0148000Y0046800D02*
X0133000Y0061800D01*
X0123241Y0046967D02*
X0113000Y0046967D01*
X0113000Y0045369D02*
X0122058Y0045369D01*
X0122058Y0043770D02*
X0113000Y0043770D01*
X0113000Y0042172D02*
X0122058Y0042172D01*
X0122058Y0040573D02*
X0113000Y0040573D01*
X0113000Y0038975D02*
X0122058Y0038975D01*
X0122058Y0037376D02*
X0113000Y0037376D01*
X0113000Y0035778D02*
X0122876Y0035778D01*
X0123876Y0030982D02*
X0113000Y0030982D01*
X0162704Y0059755D02*
X0182423Y0059755D01*
X0180537Y0061354D02*
X0165256Y0061354D01*
X0166313Y0062952D02*
X0179653Y0062952D01*
X0179200Y0064551D02*
X0166754Y0064551D01*
X0166800Y0066149D02*
X0179200Y0066149D01*
X0207650Y0067748D02*
X0208350Y0067748D01*
X0208350Y0069346D02*
X0207650Y0069346D01*
X0207650Y0070945D02*
X0208350Y0070945D01*
X0208350Y0072543D02*
X0207650Y0072543D01*
X0207650Y0074142D02*
X0208350Y0074142D01*
X0208350Y0075740D02*
X0207650Y0075740D01*
X0211947Y0075740D02*
X0236200Y0075740D01*
X0236200Y0074142D02*
X0213156Y0074142D01*
X0213705Y0072543D02*
X0236200Y0072543D01*
X0236200Y0070945D02*
X0213787Y0070945D01*
X0213404Y0069346D02*
X0236200Y0069346D01*
X0236200Y0067748D02*
X0212454Y0067748D01*
X0171180Y0082134D02*
X0168820Y0082134D01*
M02*
