G75*
%MOIN*%
%OFA0B0*%
%FSLAX25Y25*%
%IPPOS*%
%LPD*%
%AMOC8*
5,1,8,0,0,1.08239X$1,22.5*
%
%ADD10C,0.00000*%
%ADD11R,0.02000X0.02000*%
%ADD12C,0.01200*%
%ADD13C,0.00200*%
%ADD14C,0.00500*%
%ADD15C,0.00300*%
D10*
X0088000Y0011800D02*
X0088000Y0091800D01*
X0238000Y0091800D01*
X0238000Y0011800D01*
X0088000Y0011800D01*
D11*
X0105000Y0016800D03*
X0115000Y0016800D03*
X0125000Y0016800D03*
X0135000Y0016800D03*
X0145000Y0016800D03*
X0155000Y0016800D03*
X0165000Y0016800D03*
X0175000Y0016800D03*
X0185000Y0016800D03*
X0195000Y0016800D03*
X0205000Y0016800D03*
X0215000Y0016800D03*
X0215000Y0086800D03*
X0205000Y0086800D03*
X0195000Y0086800D03*
X0185000Y0086800D03*
X0175000Y0086800D03*
X0165000Y0086800D03*
X0155000Y0086800D03*
X0145000Y0086800D03*
X0135000Y0086800D03*
X0125000Y0086800D03*
X0115000Y0086800D03*
X0105000Y0086800D03*
D12*
X0100000Y0081800D02*
X0220000Y0081800D01*
X0220000Y0091800D01*
X0100000Y0091800D01*
X0100000Y0081800D01*
X0220000Y0081800D01*
X0220000Y0091800D01*
X0232000Y0091800D01*
X0232000Y0067800D01*
X0239500Y0067800D01*
X0239500Y0035800D01*
X0232000Y0035800D01*
X0232000Y0011800D01*
X0220000Y0011800D01*
X0220000Y0021800D01*
X0100000Y0021800D01*
X0100000Y0011800D01*
X0220000Y0011800D01*
X0220000Y0021800D01*
X0100000Y0021800D01*
X0100000Y0011800D01*
X0088000Y0017800D01*
X0088000Y0085800D01*
X0100000Y0091800D01*
X0100000Y0081800D01*
X0100000Y0091800D02*
X0088000Y0085800D01*
X0088000Y0017800D01*
X0100000Y0011800D01*
X0220000Y0011800D01*
X0232000Y0011800D01*
X0232000Y0035800D01*
X0239500Y0035800D01*
X0239500Y0067800D01*
X0232000Y0067800D01*
X0232000Y0091800D01*
X0220000Y0091800D01*
X0100000Y0091800D01*
D13*
X0104100Y0090211D02*
X0104467Y0090578D01*
X0104834Y0090578D01*
X0105201Y0090211D01*
X0105201Y0089844D01*
X0105201Y0090211D02*
X0105568Y0090578D01*
X0105935Y0090578D01*
X0106302Y0090211D01*
X0106302Y0089477D01*
X0105935Y0089110D01*
X0104467Y0089110D02*
X0104100Y0089477D01*
X0104100Y0090211D01*
X0104100Y0088368D02*
X0104100Y0086900D01*
X0104100Y0087634D02*
X0106302Y0087634D01*
X0105568Y0086900D01*
X0105568Y0080578D02*
X0105201Y0080211D01*
X0104834Y0080578D01*
X0104467Y0080578D01*
X0104100Y0080211D01*
X0104100Y0079477D01*
X0104467Y0079110D01*
X0104100Y0078368D02*
X0104100Y0076900D01*
X0104100Y0077634D02*
X0106302Y0077634D01*
X0105568Y0076900D01*
X0105935Y0079110D02*
X0106302Y0079477D01*
X0106302Y0080211D01*
X0105935Y0080578D01*
X0105568Y0080578D01*
X0105201Y0080211D02*
X0105201Y0079844D01*
X0091802Y0079038D02*
X0091802Y0078304D01*
X0091435Y0077937D01*
X0091068Y0077937D01*
X0090701Y0078304D01*
X0090701Y0079038D01*
X0090334Y0079405D01*
X0089967Y0079405D01*
X0089600Y0079038D01*
X0089600Y0078304D01*
X0089967Y0077937D01*
X0089600Y0077195D02*
X0090334Y0076461D01*
X0090334Y0076828D02*
X0090334Y0075727D01*
X0089600Y0075727D02*
X0091802Y0075727D01*
X0091802Y0076828D01*
X0091435Y0077195D01*
X0090701Y0077195D01*
X0090334Y0076828D01*
X0089600Y0074985D02*
X0089600Y0073517D01*
X0091802Y0073517D01*
X0091802Y0074985D01*
X0090701Y0074251D02*
X0090701Y0073517D01*
X0091435Y0072775D02*
X0091802Y0072775D01*
X0091435Y0072775D02*
X0090701Y0072041D01*
X0089600Y0072041D01*
X0090701Y0072041D02*
X0091435Y0071307D01*
X0091802Y0071307D01*
X0091068Y0070566D02*
X0089600Y0070566D01*
X0090701Y0070566D02*
X0090701Y0069098D01*
X0091068Y0069098D02*
X0091802Y0069832D01*
X0091068Y0070566D01*
X0091068Y0069098D02*
X0089600Y0069098D01*
X0089600Y0068356D02*
X0089600Y0066888D01*
X0091802Y0066888D01*
X0093200Y0064675D02*
X0095402Y0064675D01*
X0095402Y0063941D02*
X0095402Y0065409D01*
X0095402Y0063199D02*
X0093567Y0063199D01*
X0093200Y0062832D01*
X0093200Y0062098D01*
X0093567Y0061731D01*
X0095402Y0061731D01*
X0095035Y0060989D02*
X0095402Y0060622D01*
X0095402Y0059888D01*
X0095035Y0059521D01*
X0093567Y0059521D01*
X0093200Y0059888D01*
X0093200Y0060622D01*
X0093567Y0060989D01*
X0095035Y0060989D01*
X0091802Y0060258D02*
X0089600Y0060258D01*
X0089600Y0061726D01*
X0089600Y0062468D02*
X0089600Y0063936D01*
X0089600Y0062468D02*
X0091802Y0062468D01*
X0091068Y0059516D02*
X0089600Y0059516D01*
X0090701Y0059516D02*
X0090701Y0058048D01*
X0091068Y0058048D02*
X0091802Y0058782D01*
X0091068Y0059516D01*
X0091068Y0058048D02*
X0089600Y0058048D01*
X0089600Y0055096D02*
X0091802Y0055096D01*
X0093200Y0055102D02*
X0095402Y0055102D01*
X0095402Y0056203D01*
X0095035Y0056570D01*
X0094301Y0056570D01*
X0093934Y0056203D01*
X0093934Y0055102D01*
X0093200Y0054360D02*
X0093200Y0052892D01*
X0095402Y0052892D01*
X0095402Y0054360D01*
X0094301Y0053626D02*
X0094301Y0052892D01*
X0095402Y0052150D02*
X0095402Y0050682D01*
X0093200Y0050682D01*
X0093200Y0052150D01*
X0094301Y0051416D02*
X0094301Y0050682D01*
X0095402Y0049940D02*
X0093934Y0048472D01*
X0094301Y0048839D02*
X0093200Y0049940D01*
X0093200Y0048472D02*
X0095402Y0048472D01*
X0096800Y0048467D02*
X0099002Y0048467D01*
X0099002Y0049209D02*
X0096800Y0049209D01*
X0096800Y0050677D01*
X0097901Y0049943D02*
X0097901Y0049209D01*
X0099002Y0049209D02*
X0099002Y0050677D01*
X0096800Y0048467D02*
X0099002Y0046999D01*
X0096800Y0046999D01*
X0096800Y0046257D02*
X0098268Y0046257D01*
X0099002Y0045523D01*
X0098268Y0044789D01*
X0096800Y0044789D01*
X0096800Y0044047D02*
X0096800Y0042579D01*
X0099002Y0042579D01*
X0098635Y0041837D02*
X0097901Y0041837D01*
X0097534Y0041470D01*
X0097534Y0040369D01*
X0096800Y0040369D02*
X0099002Y0040369D01*
X0099002Y0041470D01*
X0098635Y0041837D01*
X0095402Y0041100D02*
X0093200Y0041100D01*
X0095402Y0039633D01*
X0093200Y0039633D01*
X0093567Y0038891D02*
X0094301Y0038891D01*
X0094301Y0038157D01*
X0095035Y0038891D02*
X0095402Y0038524D01*
X0095402Y0037790D01*
X0095035Y0037423D01*
X0093567Y0037423D01*
X0093200Y0037790D01*
X0093200Y0038524D01*
X0093567Y0038891D01*
X0091802Y0038159D02*
X0091802Y0039627D01*
X0091802Y0040369D02*
X0089600Y0040369D01*
X0089600Y0039627D02*
X0089600Y0038159D01*
X0091802Y0038159D01*
X0091802Y0037417D02*
X0089600Y0037417D01*
X0090701Y0038159D02*
X0090701Y0038893D01*
X0091802Y0037417D02*
X0091068Y0036683D01*
X0091802Y0035949D01*
X0089600Y0035949D01*
X0089600Y0035207D02*
X0091802Y0035207D01*
X0091068Y0034473D01*
X0091802Y0033740D01*
X0089600Y0033740D01*
X0089967Y0032998D02*
X0089600Y0032631D01*
X0089600Y0031897D01*
X0089967Y0031530D01*
X0091435Y0031530D01*
X0091802Y0031897D01*
X0091802Y0032631D01*
X0091435Y0032998D01*
X0089967Y0032998D01*
X0093200Y0034106D02*
X0093567Y0033740D01*
X0093200Y0034106D02*
X0093200Y0034840D01*
X0093567Y0035207D01*
X0093934Y0035207D01*
X0094301Y0034840D01*
X0094301Y0034106D01*
X0094668Y0033740D01*
X0095035Y0033740D01*
X0095402Y0034106D01*
X0095402Y0034840D01*
X0095035Y0035207D01*
X0095402Y0035949D02*
X0095402Y0036683D01*
X0095402Y0036316D02*
X0093200Y0036316D01*
X0093200Y0035949D02*
X0093200Y0036683D01*
X0096800Y0037050D02*
X0096800Y0035949D01*
X0099002Y0035949D01*
X0099002Y0037050D01*
X0098635Y0037417D01*
X0097167Y0037417D01*
X0096800Y0037050D01*
X0096800Y0035207D02*
X0099002Y0035207D01*
X0099002Y0033740D02*
X0096800Y0033740D01*
X0097167Y0032998D02*
X0099002Y0032998D01*
X0099002Y0033740D02*
X0096800Y0035207D01*
X0097167Y0032998D02*
X0096800Y0032631D01*
X0096800Y0031897D01*
X0097167Y0031530D01*
X0099002Y0031530D01*
X0098635Y0030788D02*
X0097167Y0030788D01*
X0096800Y0030421D01*
X0096800Y0029687D01*
X0097167Y0029320D01*
X0098635Y0029320D01*
X0099002Y0029687D01*
X0099002Y0030421D01*
X0098635Y0030788D01*
X0095402Y0030421D02*
X0095402Y0029320D01*
X0093200Y0029320D01*
X0093200Y0030421D01*
X0093567Y0030788D01*
X0095035Y0030788D01*
X0095402Y0030421D01*
X0095402Y0028578D02*
X0093200Y0028578D01*
X0095402Y0027110D01*
X0093200Y0027110D01*
X0093200Y0026368D02*
X0094668Y0026368D01*
X0095402Y0025634D01*
X0094668Y0024900D01*
X0093200Y0024900D01*
X0094301Y0024900D02*
X0094301Y0026368D01*
X0096800Y0026001D02*
X0097167Y0026368D01*
X0097901Y0026368D01*
X0097901Y0025634D01*
X0098635Y0026368D02*
X0099002Y0026001D01*
X0099002Y0025267D01*
X0098635Y0024900D01*
X0097167Y0024900D01*
X0096800Y0025267D01*
X0096800Y0026001D01*
X0096800Y0027110D02*
X0099002Y0027110D01*
X0099002Y0028211D01*
X0098635Y0028578D01*
X0097901Y0028578D01*
X0097534Y0028211D01*
X0097534Y0027110D01*
X0097534Y0027844D02*
X0096800Y0028578D01*
X0091802Y0028578D02*
X0091802Y0027110D01*
X0089600Y0027110D01*
X0089600Y0028578D01*
X0089967Y0029320D02*
X0089600Y0029687D01*
X0089600Y0030421D01*
X0089967Y0030788D01*
X0091435Y0030788D02*
X0091802Y0030421D01*
X0091802Y0029687D01*
X0091435Y0029320D01*
X0089967Y0029320D01*
X0090701Y0027844D02*
X0090701Y0027110D01*
X0090701Y0026368D02*
X0090334Y0026001D01*
X0090334Y0024900D01*
X0090334Y0025634D02*
X0089600Y0026368D01*
X0090701Y0026368D02*
X0091435Y0026368D01*
X0091802Y0026001D01*
X0091802Y0024900D01*
X0089600Y0024900D01*
X0104100Y0025110D02*
X0105568Y0026578D01*
X0105935Y0026578D01*
X0106302Y0026211D01*
X0106302Y0025477D01*
X0105935Y0025110D01*
X0106302Y0023634D02*
X0104100Y0023634D01*
X0104100Y0022900D02*
X0104100Y0024368D01*
X0104100Y0025110D02*
X0104100Y0026578D01*
X0106302Y0023634D02*
X0105568Y0022900D01*
X0091802Y0040369D02*
X0089600Y0041837D01*
X0091802Y0041837D01*
X0091802Y0042579D02*
X0089600Y0042579D01*
X0089600Y0043680D01*
X0089967Y0044047D01*
X0091435Y0044047D01*
X0091802Y0043680D01*
X0091802Y0042579D01*
X0093200Y0043310D02*
X0094668Y0043310D01*
X0095402Y0042576D01*
X0094668Y0041842D01*
X0093200Y0041842D01*
X0094301Y0041842D02*
X0094301Y0043310D01*
X0095402Y0044052D02*
X0093200Y0044052D01*
X0093200Y0045520D01*
X0091802Y0044789D02*
X0091802Y0046257D01*
X0091802Y0046999D02*
X0089600Y0046999D01*
X0089600Y0048100D01*
X0089967Y0048467D01*
X0091435Y0048467D01*
X0091802Y0048100D01*
X0091802Y0046999D01*
X0089600Y0046257D02*
X0089600Y0044789D01*
X0091802Y0044789D01*
X0090701Y0044789D02*
X0090701Y0045523D01*
X0097901Y0044789D02*
X0097901Y0046257D01*
X0091802Y0051786D02*
X0091435Y0051419D01*
X0089967Y0051419D01*
X0089600Y0051786D01*
X0089600Y0052519D01*
X0089967Y0052886D01*
X0091435Y0052886D01*
X0091802Y0052519D01*
X0091802Y0051786D01*
X0091802Y0053628D02*
X0089600Y0053628D01*
X0089600Y0055096D02*
X0091802Y0053628D01*
X0091802Y0079038D02*
X0091435Y0079405D01*
X0214100Y0080211D02*
X0216302Y0080211D01*
X0215201Y0079110D01*
X0215201Y0080578D01*
X0215568Y0078368D02*
X0215935Y0078368D01*
X0216302Y0078001D01*
X0216302Y0077267D01*
X0215935Y0076900D01*
X0215568Y0078368D02*
X0214100Y0076900D01*
X0214100Y0078368D01*
X0214100Y0024368D02*
X0214100Y0022900D01*
X0214100Y0023634D02*
X0216302Y0023634D01*
X0215568Y0022900D01*
D14*
X0074000Y0021856D02*
X0074000Y0017800D01*
X0080042Y0017800D01*
X0083979Y0017800D02*
X0090021Y0017800D01*
X0093958Y0017800D02*
X0100000Y0017800D01*
X0100000Y0021800D01*
X0103031Y0021800D01*
X0106969Y0021800D02*
X0110000Y0021800D01*
X0110000Y0025855D01*
X0110000Y0029792D02*
X0110000Y0033847D01*
X0110000Y0037784D02*
X0110000Y0041839D01*
X0110000Y0045776D02*
X0110000Y0049831D01*
X0110000Y0053769D02*
X0110000Y0057824D01*
X0110000Y0061761D02*
X0110000Y0065816D01*
X0110000Y0069753D02*
X0110000Y0073808D01*
X0110000Y0077745D02*
X0110000Y0081800D01*
X0106969Y0081800D01*
X0103031Y0081800D02*
X0100000Y0081800D01*
X0100000Y0085800D01*
X0093958Y0085800D01*
X0090021Y0085800D02*
X0083979Y0085800D01*
X0080042Y0085800D02*
X0074000Y0085800D01*
X0074000Y0081744D01*
X0074000Y0077807D02*
X0074000Y0073751D01*
X0074000Y0069814D02*
X0074000Y0065758D01*
X0074000Y0061821D02*
X0074000Y0057765D01*
X0074000Y0053828D02*
X0074000Y0049772D01*
X0074000Y0045835D02*
X0074000Y0041779D01*
X0074000Y0037842D02*
X0074000Y0033786D01*
X0074000Y0029849D02*
X0074000Y0025793D01*
D15*
X0095750Y0021431D02*
X0095750Y0019497D01*
X0095750Y0020464D02*
X0098652Y0020464D01*
X0097685Y0019497D01*
X0098652Y0018485D02*
X0096234Y0018485D01*
X0095750Y0018001D01*
X0095750Y0017034D01*
X0096234Y0016550D01*
X0098652Y0016550D01*
M02*
